<svg width="316" height="326" viewBox="0 0 316 326" fill="none" xmlns="http://www.w3.org/2000/svg">
<path d="M143.07 139.751C143.943 139.662 146.64 139.841 147.532 139.984C156.618 141.513 159.457 142.387 167.338 147.204C171.132 146.116 175.324 144.774 179.171 144.027C188.014 142.31 199.76 144.194 207.144 149.488C208.619 150.308 210.956 151.597 212.172 152.67C212.66 153.064 214.291 154.329 214.656 154.704C215.767 155.581 218.218 157.562 219.108 158.601C221.627 161.21 224.159 164.093 226.641 166.624C227.555 167.645 229.739 169.813 230.37 170.754C233.379 174.025 236.436 177.849 239.306 181.268C239.867 182.02 241.154 183.671 241.551 184.275C243.235 186.509 244.871 188.779 246.457 191.084C247.524 192.518 248.599 193.947 249.681 195.371C252.646 199.319 255.568 203.3 258.446 207.312C260.058 209.54 262.34 212.536 263.708 214.838C264.066 215.221 265.382 217.131 265.755 217.658C267.115 219.682 268.465 221.712 269.804 223.75C270.376 224.619 270.979 225.651 271.52 226.545C280.02 238.77 285.027 252.79 285.063 267.737C285.045 268.473 285.047 269.21 285.066 269.946C284.909 276.099 283.822 283.43 281.769 289.258C281.491 290.58 281.178 291.216 280.761 292.434L280.455 293.214C276.074 302.891 270.963 309.697 261.973 315.705C245.697 326.582 223.5 328.215 205.627 320.41C203.775 319.602 197.73 316.561 196.492 315.269C195.16 314.567 194.186 313.755 193.01 312.841L191.795 311.808C191.217 311.192 190.691 310.79 190.043 310.254C189.317 309.577 188.537 308.893 187.797 308.226C187.174 307.669 186.603 307.074 185.989 306.53C181.213 301.666 178.428 296.491 172.414 292.848C167.743 290.018 164.85 288.818 159.51 287.914C158.306 287.788 157.091 287.476 155.758 287.377C152.938 287.174 147.594 286.956 144.874 287.543C142.556 287.71 138.434 288.141 136.249 288.827C135.516 288.908 134.241 289.175 133.525 289.369L133.249 289.44C131.683 289.822 129.716 290.243 128.209 290.718C126.901 291.252 124.895 291.649 123.474 292.097C117.669 294.163 109.037 297.43 103.522 300.427C102.386 301.235 101.359 301.716 100.175 302.381L98.3244 303.351C97.9764 303.753 95.5634 304.808 94.9234 305.168C94.2994 305.479 93.6154 305.843 92.9824 306.116C92.2374 306.408 91.5364 306.811 90.8684 307.25L89.2374 308.127C84.1644 310.711 76.1644 314.413 70.7554 315.64C66.5424 316.443 63.8654 316.596 59.5394 316.622C52.1683 316.021 45.4743 315.221 38.8711 311.524C29.2791 306.153 23.3977 298.396 20.2382 288.068L19.8771 286.244L19.643 284.511C18.5157 278.36 19.9771 267.743 21.5959 261.708C21.8294 261.121 22.0222 260.515 22.257 259.951C24.2636 254.118 26.7225 248.449 29.6114 242.998C30.3341 241.472 31.0142 240.444 32.0413 239.095C33.7463 236.608 35.075 234.754 36.9769 232.425C38.1126 231.155 39.134 229.669 40.137 228.283C44.6991 223.37 48.9057 219.131 53.9241 214.601L59.0484 209.429C63.3084 205.197 67.2354 201.385 71.1634 196.827C71.5964 196.251 72.5834 195.095 73.0804 194.553C76.3554 191.106 80.6954 185.901 83.8114 182.194C84.2474 181.623 84.5424 181.261 85.0704 180.755C86.6414 178.817 88.1854 176.858 89.7024 174.878C90.1244 174.325 91.2434 173.077 91.7294 172.535C93.6914 169.768 96.2264 167.106 98.3744 164.465C110.543 149.507 123.294 140.31 143.07 139.751ZM127.26 289.448C125.335 288.685 123.673 287.859 123.311 290.836C124.258 290.596 126.464 289.963 127.26 289.448ZM86.5754 181.281C85.7924 181.709 84.5614 182.05 85.2294 183.053C85.8444 183.082 88.6734 183.779 87.8324 182.351C87.4684 181.732 87.2164 181.524 86.5754 181.281ZM187.301 305.243L186.963 305.716C187.788 306.431 187.887 306.608 188.587 307.336C189.8 305.826 190.019 305.407 188.245 304.874L188.063 304.818C187.776 305.009 187.604 305.093 187.301 305.243ZM82.5014 227.936C82.2644 228.169 81.3234 229.331 81.0304 229.313C80.8084 229.299 80.5934 229.215 80.3844 229.148C80.1084 229.059 79.6864 229.009 79.4454 229.224C79.3894 229.274 79.3534 229.343 79.3064 229.403C79.5254 230.062 79.9524 230.39 80.4694 230.816C81.2674 230.339 81.7304 229.86 82.6364 229.562C82.9094 229.473 83.1734 229.248 83.2924 228.986C83.3824 228.79 83.3924 228.563 83.2804 228.373C83.1174 228.095 82.7814 228.03 82.5014 227.936ZM68.7884 304.408C69.0324 304.123 69.0264 303.701 68.7744 303.424C68.5224 303.146 68.1034 303.099 67.7964 303.314C67.5604 303.479 67.4404 303.766 67.4894 304.05C67.5384 304.334 67.7474 304.564 68.0254 304.641C68.3034 304.717 68.6004 304.626 68.7884 304.408ZM187.256 145.775C187.062 145.966 186.992 146.25 187.075 146.51C187.158 146.769 187.38 146.96 187.648 147.003C187.917 147.047 188.188 146.936 188.348 146.716C188.57 146.411 188.521 145.988 188.236 145.742C187.95 145.496 187.524 145.51 187.256 145.775ZM81.6524 189.109C81.8984 189.021 82.0764 188.805 82.1174 188.547C82.1584 188.288 82.0554 188.028 81.8484 187.868C81.6424 187.708 81.3644 187.672 81.1244 187.776C80.7684 187.93 80.5994 188.338 80.7424 188.699C80.8844 189.059 81.2874 189.241 81.6524 189.109ZM196.657 313.138C197.992 310.922 195.793 311.5 194.527 312.155C195.454 312.859 195.527 312.806 196.657 313.138ZM75.6154 240.722C75.5264 240.881 75.4404 241.031 75.3364 241.18C75.2294 241.333 75.1374 241.556 75.1854 241.746C75.2444 241.983 75.4194 242.126 75.6314 242.23C75.8614 242.344 76.1254 242.394 76.3704 242.458C76.5224 242.498 76.6724 242.542 76.8234 242.584C77.0404 242.301 77.3374 241.993 77.2974 241.603C77.2774 241.407 77.1754 241.259 77.0244 241.139C76.6634 240.853 76.0544 240.818 75.6154 240.722ZM86.7004 234.15C86.8724 233.823 86.7524 233.42 86.4314 233.238C86.1104 233.057 85.7034 233.163 85.5114 233.479C85.3824 233.692 85.3794 233.958 85.5034 234.174C85.6274 234.39 85.8604 234.521 86.1094 234.516C86.3584 234.511 86.5854 234.371 86.7004 234.15ZM79.1574 224.131C79.4204 224.059 79.6194 223.844 79.6704 223.577C79.7214 223.31 79.6164 223.036 79.3994 222.873C79.1814 222.709 78.8894 222.683 78.6474 222.807C78.3204 222.972 78.1724 223.358 78.3044 223.699C78.4364 224.041 78.8044 224.227 79.1574 224.131ZM81.9814 223.463C81.9224 222.843 81.8434 222.212 81.3284 221.798C81.1554 221.659 80.9464 221.606 80.7414 221.531C80.7064 221.518 80.6724 221.505 80.6374 221.492C80.6144 222.019 80.5684 222.491 80.9534 222.909C81.2384 223.218 81.5994 223.323 81.9814 223.463ZM48.6375 241.159C48.3562 241.442 48.3365 241.892 48.5921 242.198C48.8476 242.505 49.2943 242.566 49.6231 242.34C49.8647 242.174 49.9916 241.886 49.9505 241.595C49.9094 241.305 49.7074 241.063 49.4292 240.97C49.1509 240.878 48.8442 240.951 48.6375 241.159ZM86.3564 231.235C86.6194 230.951 86.6034 230.508 86.3214 230.244C86.0394 229.979 85.5964 229.991 85.3294 230.272C85.0604 230.555 85.0734 231.003 85.3584 231.27C85.6424 231.537 86.0904 231.522 86.3564 231.235ZM58.2479 238.835C58.2563 239.022 58.2558 239.215 58.2717 239.402C58.2901 239.618 58.3655 239.841 58.5345 239.985C58.7261 240.148 59.022 240.145 59.2549 240.098C59.5294 240.042 59.7964 239.956 60.0644 239.877C60.1324 239.603 60.2464 239.332 60.0914 239.065C59.9964 238.9 59.8374 238.821 59.6554 238.785C59.3433 238.722 58.9979 238.785 58.686 238.808C58.5401 238.819 58.3939 238.826 58.2479 238.835ZM82.6064 234.637C82.2234 234.883 82.0834 235.375 82.2784 235.786C82.4744 236.197 82.9444 236.399 83.3774 236.257C83.7104 236.148 83.9504 235.856 83.9934 235.508C84.0364 235.159 83.8734 234.818 83.5764 234.631C83.2794 234.445 82.9014 234.447 82.6064 234.637ZM139.081 142.522C138.626 142.862 137.609 143.479 137.562 144.123C137.544 144.38 137.673 144.582 137.857 144.75C138.176 145.041 138.618 145.246 138.983 145.48C139.371 145.307 139.692 145.171 139.881 144.77C140.067 144.376 139.91 143.498 139.733 143.121C139.591 142.82 139.354 142.697 139.081 142.522Z" fill="#7BAF8E"/>
<path d="M243.709 108.4C246.997 93.1481 252.108 75.2561 270.906 74.1431C291.823 72.9051 306.179 97.8021 310.214 115.456L310.965 117.715C312.038 123.694 314.569 132.488 314.729 138.481C315.038 139.938 315.021 140.88 315.159 142.335C316.01 155.941 315.783 166.723 306.246 177.934C300.459 184.737 290.551 189.631 281.622 190.111C280.641 190.16 279.659 190.185 278.677 190.185L277.424 190.167C269.846 190.026 262 187.148 256.699 181.643C255.617 180.619 255.221 180.11 254.249 179.031C248.588 171.469 245.747 162.646 243.93 153.472C243.755 152.372 243.563 151.142 243.415 150.042C242.645 144.751 242.173 139.42 242.003 134.076C241.975 133.139 241.939 132.6 242.01 131.656C241.65 126.687 242.539 117.267 243.182 112.313C243.32 111.063 243.443 109.623 243.709 108.4Z" fill="#7BAF8E"/>
<path d="M28.7837 79.875C36.4551 77.542 41.861 77.261 49.2165 80.367C51.2318 81.194 53.5348 82.174 55.2463 83.541C59.6866 86.333 65.6466 93.482 67.9666 98.193C68.5256 99.092 69.2736 100.473 69.7586 101.44C76.1166 114.159 78.2996 127.734 77.4126 141.833L77.3226 142.232C76.9816 145.834 76.0236 150.228 75.2466 153.825C75.0886 154.484 74.9176 155.139 74.7326 155.791C74.1736 157.368 73.3676 159.945 72.9136 161.571L72.8256 161.769C72.2366 163.11 72.0276 163.825 71.2176 165.124C70.5216 167.063 67.7556 171.039 66.6426 172.944C65.1046 174.87 63.6516 176.685 61.8276 178.365C52.3642 188.444 39.5878 192.143 26.3249 187.567C24.0711 186.702 22.2165 186.085 20.2896 184.483C18.5459 183.728 14.886 179.952 13.5123 178.326C1.90371 164.58 -1.04809 142.712 0.303108 125.435C0.429808 124.317 0.522007 123.147 0.673607 122.052C1.76371 115.987 2.74131 112.401 4.34531 106.623L5.06561 106.873C4.32771 108.391 4.68761 108.274 6.09181 107.969C8.05821 104.831 15.0284 100.03 18.3101 98.174L18.2268 97.411C18.722 97.048 19.4754 96.8 20.0681 96.57C20.6064 96.354 20.8629 96.172 21.2808 95.777C20.5026 93.408 22.6265 88.212 23.5486 85.931C24.2049 85.428 25.2194 83.877 25.7357 83.142C27.3767 82.161 27.9636 81.713 28.6849 80.092L28.7837 79.875ZM40.386 84.673C41.2618 82.73 40.2393 82.685 38.5825 82.616C37.8888 84.092 39.1275 84.408 40.386 84.673ZM49.2135 170.505C49.0557 170.672 48.8278 170.89 48.8422 171.149C48.849 171.272 48.9205 171.332 49.0166 171.396C49.215 171.527 49.4275 171.535 49.6539 171.48C49.8387 171.435 49.9978 171.352 50.17 171.278C50.334 171.207 50.5074 171.15 50.6754 171.089C50.708 171.039 50.7391 170.989 50.773 170.94C50.7859 170.921 50.8031 170.906 50.8158 170.887C50.8486 170.839 50.8754 170.768 50.8515 170.71C50.805 170.598 50.7489 170.54 50.6308 170.503C50.3334 170.412 49.9722 170.493 49.6727 170.508C49.5658 170.514 49.3202 170.507 49.2135 170.505ZM38.2852 180.183C38.263 180.579 38.1718 181.09 38.46 181.419C38.6293 181.613 38.8798 181.682 39.1301 181.685C39.7329 181.692 40.3499 181.608 40.9504 181.556C41.0077 181.207 41.1621 180.706 40.9679 180.375C40.8796 180.224 40.7195 180.158 40.5536 180.134C39.8826 180.034 38.9815 180.169 38.2852 180.183ZM11.0717 168.775C11.1806 168.283 11.4215 167.613 11.1301 167.136C10.841 166.662 10.0647 166.616 9.58851 166.523C9.60461 167.167 9.64711 167.99 10.1898 168.437C10.4405 168.644 10.7667 168.692 11.0717 168.775ZM44.3036 177.121C44.82 176.729 45.1768 176.404 45.2706 175.732C45.3161 175.406 45.28 175.092 45.0607 174.833C44.5236 174.198 43.737 174.003 42.9665 173.805C42.804 173.986 42.6354 174.161 42.4733 174.341C42.0607 174.8 41.7153 175.233 41.7612 175.877C41.7856 176.219 41.9217 176.479 42.1759 176.707C42.7587 177.227 43.5822 177.091 44.3036 177.121ZM69.6686 163.153C70.4326 162.463 70.4546 162.491 70.6216 161.539C68.1546 161.038 67.2276 161.581 69.6686 163.153Z" fill="#7BAF8E"/>
<path d="M87.0715 9.91582C98.5115 0.89692 110.811 -3.15948 124.89 2.83312C125.692 3.29422 126.54 3.69442 127.306 4.21592C130.307 6.36822 131.261 7.42642 133.696 10.0069C134.3 10.5656 135.207 11.6498 135.667 12.3284L135.833 12.7131C136.524 13.4463 137.421 15.0822 137.842 16.0266L137.796 16.2473C138.268 17.2044 138.639 17.8664 138.878 18.9203C140.307 23.1982 141.367 28.0155 141.587 32.5239C141.707 33.7239 141.733 34.6279 141.767 35.8299L141.719 40.1469C141.643 40.9889 141.583 41.8329 141.538 42.6779L140.871 51.3029C140.675 52.5509 140.432 53.8509 140.188 55.0919C139.882 56.9129 139.145 59.7249 138.974 61.3429L138.579 63.3569C137.973 65.7889 137.274 68.9399 136.525 71.2739C136.362 71.7439 136.334 71.8809 136.213 72.3609C135.334 75.7499 134.227 79.0749 132.898 82.3139C132.854 82.4179 132.809 82.5209 132.765 82.6249C132.003 84.3959 131.307 86.1359 130.312 87.7919C126.151 95.2729 119.95 101.875 111.51 104.275C106.077 105.819 97.9315 105.667 92.9355 102.793C88.6365 100.321 83.3485 94.6669 81.0635 90.2049C73.8885 77.4659 71.5025 67.2019 70.0125 53.0069C70.0245 51.8649 70.0305 50.8059 70.0815 49.6589C70.4945 46.0279 71.0035 42.4069 71.6075 38.8029L71.8015 37.9619C72.0285 36.9129 72.1955 36.0839 72.5465 35.0479C75.2035 26.0244 77.8505 20.811 83.5435 13.442C84.7435 11.9857 85.6845 11.1677 87.0715 9.91582ZM70.0815 49.6589C70.0305 50.8059 70.0245 51.8649 70.0125 53.0069C70.3585 53.0579 70.6645 53.1179 71.0065 53.1839C78.1995 52.9969 73.2695 47.8749 71.1385 49.4699C70.8075 49.5349 70.4145 49.6239 70.0815 49.6589ZM87.8804 15.9943C86.1414 15.939 85.4675 16.3785 84.7505 17.9992C84.9325 17.9467 85.7175 17.7309 85.8575 17.594C86.8395 16.63 87.9334 17.7185 87.8804 15.9943ZM80.3555 75.3599L80.4005 75.0389C80.5725 74.0019 78.9755 74.1129 78.3775 74.1149C78.3845 75.2099 78.5615 75.6519 79.7685 75.4339C79.9635 75.4059 80.1595 75.3819 80.3555 75.3599Z" fill="#7BAF8E"/>
<path d="M160.374 40.0011C161.486 32.3101 165.128 20.96 170.288 15.0417C173.992 10.7945 178.552 8.41396 184.171 8.08976C193.185 7.56976 199.39 9.85526 206.047 15.7054C207.683 17.0798 209.801 19.0674 210.971 20.8391C212.618 22.1991 215.49 27.0173 216.775 29.0651C219.658 34.0531 221.54 38.7601 223.365 44.1951L223.943 46.1731C224.274 47.3481 224.616 48.2721 224.888 49.4881C225.656 53.4891 226.111 55.8381 226.384 59.9001C226.476 60.6841 226.524 61.3711 226.576 62.1541C226.716 68.3401 226.823 75.0551 225.399 81.1161C224.739 84.4631 222.717 90.9161 220.573 93.5641L220.422 93.9361C219.274 96.1841 217.252 98.8381 215.536 100.647L214.953 101.09C214.418 101.548 212.683 103.019 212.305 103.46L211.322 104.205C210.058 105.28 209.085 105.65 207.895 106.468C202.135 109.541 197.228 110.726 190.72 110.769C159.562 110.971 159.401 78.6791 159.468 55.9121L159.534 53.2631C159.557 52.3261 159.564 51.3891 159.556 50.4521C159.587 49.6601 159.631 48.8691 159.687 48.0791C159.835 46.1941 159.96 44.0641 160.078 42.1661C160.587 42.2161 160.991 42.2551 161.502 42.2681L161.648 41.9071C161.47 41.1291 161.459 41.1081 161.927 40.4731C161.249 39.9431 161.238 39.9681 160.374 40.0011ZM214.859 99.3001C215.662 98.3061 216.318 98.0751 216.759 96.9451C214.414 96.0061 213.425 97.3711 214.588 98.9051C214.681 99.0351 214.771 99.1671 214.859 99.3001ZM216.904 95.6241C218.461 95.2981 218.579 95.2581 219.298 93.6541C218.392 93.1321 218.051 92.7541 217.045 93.1311C216.975 94.9401 217.833 93.3671 216.904 95.6241ZM221.213 43.7391C221.049 41.6141 220.651 40.8891 219.273 43.2711C220.182 43.8591 220.153 43.9041 221.213 43.7391ZM223.965 81.3901C222.118 81.5341 222.598 82.3501 223.329 83.6531C223.965 82.7391 223.857 82.5831 223.965 81.3901ZM191.44 10.9613C189.905 11.5 189.474 11.4702 190.939 12.782C192.032 12.0824 192.981 11.7155 191.44 10.9613ZM207.23 105.009C208.478 104.558 208.878 104.506 209.853 103.646C207.882 103.126 206.533 102.6 207.23 105.009ZM216.039 80.0351C215.39 81.5721 216.103 82.4311 215.256 83.1471C217.895 83.8291 219.824 81.0431 216.039 80.0351ZM216.565 61.1361L216.685 61.9301C216.758 62.4001 216.968 62.9021 217.387 63.1651C217.572 63.2791 217.795 63.3151 218.006 63.2621C218.382 63.1731 218.673 62.8661 218.967 62.6381C218.273 62.1871 217.268 61.5521 216.565 61.1361ZM181.572 105.054C181.264 105.153 180.961 105.239 180.65 105.326C180.373 105.403 180.055 105.545 179.934 105.828C179.857 106.006 179.865 106.173 179.944 106.351C180.158 106.825 180.775 107.153 181.175 107.45C181.688 107.153 182.301 106.861 182.474 106.236C182.546 105.977 182.517 105.752 182.369 105.527C182.195 105.263 181.847 105.156 181.572 105.054ZM220.711 64.7151C221.683 65.9101 221.933 65.6841 223.218 65.3171C222.803 64.0431 221.952 64.5271 220.711 64.7151ZM217.293 34.4241C217.033 34.5811 216.893 34.8791 216.94 35.1801C216.986 35.4801 217.209 35.7221 217.505 35.7931C217.833 35.8721 218.174 35.7201 218.336 35.4241C218.498 35.1271 218.441 34.7591 218.197 34.5251C217.953 34.2911 217.582 34.2501 217.293 34.4241Z" fill="#7BAF8E"/>
<path d="M23.3225 82.475C24.959 81.354 26.9481 80.598 28.7836 79.875L28.6848 80.092C27.9635 81.713 27.3766 82.161 25.7356 83.142C25.2193 83.877 24.2048 85.428 23.5485 85.931C22.6264 88.212 20.5025 93.408 21.2807 95.777C20.8628 96.172 20.6063 96.354 20.068 96.57C19.4753 96.8 18.7219 97.048 18.2267 97.411L18.31 98.174C15.0283 100.03 8.05812 104.831 6.09172 107.969C4.68752 108.274 4.32762 108.391 5.06552 106.873L4.34521 106.623C8.05781 97.994 14.4541 86.688 23.3225 82.475Z" fill="url(#paint0_linear_7_1296)"/>
<defs>
<linearGradient id="paint0_linear_7_1296" x1="7.63487" y1="91.9021" x2="24.7979" y2="94.5235" gradientUnits="userSpaceOnUse">
<stop stop-color="#7BAF8E"/>
<stop offset="1" stop-color="#7BAF8E"/>
</linearGradient>
</defs>
</svg>
